<?xml version="1.0" encoding="UTF-8"?>
<svg id="_图层_2" data-name="图层 2" xmlns="http://www.w3.org/2000/svg" viewBox="0 0 117.48 177.73">
  <defs>
    <style>
      .cls-1 {
        fill: #1e90ff;
      }
    </style>
  </defs>
  <g id="_图层_1-2" data-name="图层 1">
    <g>
      <path class="cls-1" d="M102.02,0c-6.43,21.31-5.81,43.05-4.39,64.94,1.26,19.44,2.49,38.93,2.34,58.39-.17,22.06-9.57,39.49-30.18,49.39-13.65,6.55-27.71,6.45-41.78,1.06-.69-.26-1.31-.69-1.49-.79,6.54-.81,13.65-.73,20.16-2.67,20.45-6.11,32.52-20.46,36.49-41.15,1.97-10.28,2.7-20.86,3.2-31.35,.71-14.74,.27-29.53,1.08-44.26,1.03-18.79,4.46-37.09,14.56-53.55Z"/>
      <path class="cls-1" d="M11.57,159.95c11.37,1.72,22.08,.49,31.83-6.02,11.98-7.99,17.5-19.92,19.24-33.53,1.73-13.55,2.28-27.25,3.35-40.88,1.4-17.74,3.64-35.32,10.21-52.05,.18-.45,.41-.88,.87-1.27-4.64,23.15-2.19,46.48-2.18,69.73,0,12.37,.21,24.72-2.38,36.96-4.54,21.51-22.95,34.25-42.07,33.23-6.83-.37-13.12-2.34-18.88-6.17Z"/>
      <path class="cls-1" d="M112.11,6.07c-3.5,23.11-.48,45.38,2.13,67.7,1.43,12.27,2.76,24.6,3.16,36.94,.43,13.48-.67,26.88-8.29,38.78-5.59,8.73-12.94,15.34-22.56,19.37,7.95-6.64,14.74-14.4,17.31-24.43,2.47-9.6,4.37-19.62,4.48-29.47,.2-17.22-1.25-34.45-1.84-51.69-.63-18.59-.28-37.11,4.66-55.24,.13-.49,.44-.94,.95-1.96Z"/>
      <path class="cls-1" d="M10.76,122.31c-3.86,13.16-.58,24.49,8.16,34.51-6.78,1.43-14.11-2.72-17.26-9.55-3.96-8.59-.75-17.58,9.11-24.96Z"/>
      <path class="cls-1" d="M21.34,111.48c-4.38,15.83-1.52,29.81,9.42,42.09-4.87,1.06-10.78-1.48-13.76-6.32-5.73-9.29-5.71-18.91-.68-28.48,1.36-2.6,3.34-4.87,5.03-7.3Z"/>
      <path class="cls-1" d="M31.63,105.13c-2.57,16-1.06,30.97,9.8,43.92-5.35,.83-10.42-1.89-13.01-7.85-5.43-12.5-3.58-24.55,3.21-36.07Z"/>
    </g>
  </g>
</svg>